<?xml version="1.0" encoding="UTF-8"?>
<svg width="44px" height="44px" viewBox="0 0 44 44" version="1.1" xmlns="http://www.w3.org/2000/svg" xmlns:xlink="http://www.w3.org/1999/xlink">
    <title>Group 2</title>
    <g id="Page-1" stroke="none" stroke-width="1" fill="none" fill-rule="evenodd">
        <g id="Group-2">
            <rect id="Rectangle" x="0" y="0" width="44" height="44"></rect>
            <g id="consideration" transform="translate(0.000000, 8.000000)" fill="#BFBFBF" fill-rule="nonzero">
                <path d="M13.5105328,9.00321981 C15.2143537,8.98966926 16.8582224,9.67118375 18.1037242,10.9074635 C19.3143488,12.0966162 20.0019394,13.770018 20,15.5224541 C19.8741014,19.2083252 16.9780499,22.0976673 13.5105328,21.9968827 C11.8339158,22.0511668 10.2057591,21.3946341 8.98462886,20.1718718 C7.76349862,18.9491095 7.0495447,17.2604012 7,15.4776484 C7.12586532,11.7827867 10.0349058,8.88987839 13.5105328,9.00321981 Z" id="Path"></path>
                <path d="M13.5093296,24 C8.91914305,24 0,26.2474227 0,31.0103093 L0,36 L27,36 L27,31.0103093 C27,26.2474227 18.0808569,24 13.5093296,24 Z" id="Path"></path>
                <path d="M39.9626556,4.92145264 C39.2748753,2.33349423 37.0589444,0.411132468 34.3563441,0.057871914 C31.6537438,-0.29538864 29.0019519,0.990706449 27.6473029,3.31169615 C25.0754648,3.54722136 23.0839415,5.62282813 23,8.15521126 C23.1253197,10.8945077 25.4476476,13.0399952 28.2427386,12.9987264 L39.6431535,12.9987264 C41.976972,13.0547461 43.9210223,11.255861 44,8.96721233 C43.9347339,6.79262791 42.177654,5.03188554 39.9626556,4.92145264 Z" id="Path"></path>
            </g>
        </g>
    </g>
</svg>