<?xml version="1.0" encoding="UTF-8"?>
<svg width="18px" height="23px" viewBox="0 0 18 23" version="1.1" xmlns="http://www.w3.org/2000/svg" xmlns:xlink="http://www.w3.org/1999/xlink">
    <title>Shape</title>
    <g id="Ad-formats_Awareness" stroke="none" stroke-width="1" fill="none" fill-rule="evenodd">
        <g id="Awareness-DT" transform="translate(-1128.000000, -362.000000)" fill="#BFBFBF" fill-rule="nonzero">
            <path d="M1144.11237,374.529524 L1140.43344,372.755238 C1141.8982,371.66 1142.84064,369.951429 1142.84064,368.02381 C1142.84064,364.705238 1140.03602,362 1136.59554,362 C1133.15505,362 1130.35043,364.705238 1130.35043,368.02381 C1130.35043,370.356667 1131.73571,372.382857 1133.75685,373.379524 L1133.75685,376.95 C1131.361,376.457143 1131.47455,376.468095 1131.19068,376.468095 C1130.58888,376.468095 1130.02114,376.698095 1129.58966,377.114286 L1128,378.669524 L1133.77956,384.244286 C1134.26781,384.72619 1134.9491,385 1135.65309,385 L1142.80658,385 C1143.91934,385 1144.86178,384.233333 1145.04346,383.170952 L1145.95184,378.012381 C1146.20164,376.588571 1145.46358,375.186667 1144.11237,374.529524 Z M1143.82572,377.750519 L1142.93819,382.909091 L1135.94889,382.909091 C1135.84905,382.909091 1135.76029,382.865281 1135.68264,382.799567 L1131.6,378.769091 L1136.315,379.743853 L1136.315,368.123377 C1136.315,367.81671 1136.55907,367.575758 1136.86971,367.575758 C1137.18034,367.575758 1137.42441,367.81671 1137.42441,368.123377 L1137.42441,374.694805 L1139.37698,374.694805 L1143.21554,376.589567 C1143.65931,376.808615 1143.90338,377.279567 1143.82572,377.750519 Z M1133.04,368.197633 C1133.04,365.933068 1134.81634,364.090909 1137,364.090909 C1139.18366,364.090909 1140.96,365.933068 1140.96,368.197633 C1140.96,369.312315 1140.53006,370.321396 1139.82857,371.060606 L1139.82857,368.197633 C1139.82857,366.57841 1138.56137,365.264259 1137,365.264259 C1135.43863,365.264259 1134.17143,366.57841 1134.17143,368.197633 L1134.17143,371.060606 C1133.46994,370.321396 1133.04,369.312315 1133.04,368.197633 Z" id="Shape"></path>
        </g>
    </g>
</svg>