<?xml version="1.0" encoding="UTF-8"?>
<svg width="588px" height="280px" viewBox="0 0 588 280" version="1.1" xmlns="http://www.w3.org/2000/svg" xmlns:xlink="http://www.w3.org/1999/xlink">
    <title>phone</title>
    <g id="Ad-formats_Awareness" stroke="none" stroke-width="1" fill="none" fill-rule="evenodd">
        <g id="Awareness-DT" transform="translate(-427.000000, -681.000000)" stroke="#979797">
            <g id="phone" transform="translate(428.000000, 681.000000)">
                <path d="M176.255079,0.5 C176.807364,0.5 177.255079,0.94771525 177.255079,1.5 L177.255,3.145 L214.293,3.145 L214.293454,1.5 C214.293454,0.94771525 214.741169,0.5 215.293454,0.5 L286.047404,0.5 C286.599689,0.5 287.047404,0.94771525 287.047404,1.5 L287.047,3.145 L560,3.14454976 C574.359403,3.14454976 586,14.7851463 586,29.1445498 L586,253.5 C586,267.859403 574.359403,279.5 560,279.5 L26,279.5 C11.6405965,279.5 5.66412658e-14,267.859403 5.84354597e-14,253.5 L7.21732689e-14,29.1445498 C9.23694601e-14,14.7851463 11.6405965,3.14454976 26,3.14454976 L140.216,3.145 L140.216704,1.5 C140.216704,0.94771525 140.66442,0.5 141.216704,0.5 L176.255079,0.5 Z M46.5,18 C42.081722,18 38.5,21.581722 38.5,26 L38.5,26 L38.5,257 C38.5,261.418278 42.081722,265 46.5,265 L46.5,265 L533.5,265 C537.918278,265 541.5,261.418278 541.5,257 L541.5,257 L541.5,26 C541.5,21.581722 537.918278,18 533.5,18 L533.5,18 Z" id="Combined-Shape" fill="#FFFFFF"></path>
                <path d="M403.5,-148 C416.754834,-148 427.5,-137.254834 427.5,-124 L427.5,406 C427.5,419.254834 416.754834,430 403.5,430 L182.5,430 C169.245166,430 158.5,419.254834 158.5,406 L158.5,-124 C158.5,-137.254834 169.245166,-148 182.5,-148 L403.5,-148 Z M408.5,-113 L177.5,-113 C173.081722,-113 169.5,-109.418278 169.5,-105 L169.5,-105 L169.5,382 C169.5,386.418278 173.081722,390 177.5,390 L177.5,390 L408.5,390 C412.918278,390 416.5,386.418278 416.5,382 L416.5,382 L416.5,-105 C416.5,-109.418278 412.918278,-113 408.5,-113 L408.5,-113 Z" id="Combined-Shape" stroke-width="0.5" fill="#FFFFFF" transform="translate(293.000000, 141.000000) rotate(-90.000000) translate(-293.000000, -141.000000) "></path>
                <circle id="Oval" transform="translate(23.000000, 226.500000) rotate(-90.000000) translate(-23.000000, -226.500000) " cx="23" cy="226.5" r="4"></circle>
                <rect id="Rectangle" transform="translate(23.000000, 141.500000) rotate(-90.000000) translate(-23.000000, -141.500000) " x="-5" y="137.5" width="56" height="8" rx="3"></rect>
                <rect id="Rectangle-Copy-6" transform="translate(23.000000, 100.500000) rotate(-90.000000) translate(-23.000000, -100.500000) " x="17" y="96.5" width="12" height="8" rx="3"></rect>
                <rect id="Rectangle-Copy-30" transform="translate(290.000000, 140.500000) rotate(-270.000000) translate(-290.000000, -140.500000) " x="166.5" y="-111" width="247" height="503" rx="8"></rect>
            </g>
        </g>
    </g>
</svg>