<svg width="432" height="199" viewBox="0 0 432 199" fill="none" xmlns="http://www.w3.org/2000/svg">
<path fill-rule="evenodd" clip-rule="evenodd" d="M58.288 57.2479C52.528 64.9279 43.888 69.6319 32.656 69.6319C13.456 69.6319 0.591965 56.8639 0.591965 35.9359C0.591965 14.2399 13.36 0.991943 33.04 0.991943C44.944 0.991943 52.528 6.07994 57.136 12.6079L45.04 23.2639C41.296 19.3279 38.608 17.5039 33.424 17.5039C26.128 17.5039 20.752 24.5119 20.752 35.4559C20.752 46.2079 24.784 53.1199 32.944 53.1199C38.704 53.1199 42.16 51.1999 45.616 46.3039L58.288 57.2479ZM64.1057 2.62394H84.2657V41.0239C84.2657 48.9919 87.4337 53.1199 93.3857 53.1199C99.3377 53.1199 102.41 48.9919 102.41 41.0239V2.62394H122.57V41.0239C122.57 59.8399 112.586 69.6319 93.3857 69.6319C74.1857 69.6319 64.1057 59.8399 64.1057 41.0239V2.62394ZM132.758 2.62394V67.9999H177.782V51.6799H152.918V2.62394H132.758ZM215.601 67.9999H195.441V18.9439H177.105V2.62394H234.129V18.9439H215.601V67.9999ZM260.516 2.62394H240.356V41.0239C240.356 59.8399 250.436 69.6319 269.636 69.6319C288.836 69.6319 298.82 59.8399 298.82 41.0239V2.62394H278.66V41.0239C278.66 48.9919 275.588 53.1199 269.636 53.1199C263.684 53.1199 260.516 48.9919 260.516 41.0239V2.62394ZM329.168 67.9999H309.008V2.62394H335.024C352.496 2.62394 361.616 10.0159 361.616 24.1279C361.616 32.6719 357.68 38.5279 350.096 41.5999L365.552 67.9999H345.2L332.72 43.9999H329.168V67.9999ZM328.688 17.2159V31.4239H333.584C338.576 31.4239 341.456 28.8319 341.456 24.2239C341.456 19.8079 338.576 17.2159 333.584 17.2159H328.688ZM417.512 53.0239H392.168V41.3119H410.12L413.768 27.2959H392.168V17.5999H417.512V2.62394H372.008V67.9999H417.512V53.0239ZM169.811 198.675C178.406 198.675 183.806 192.51 183.806 182.7C183.806 172.845 178.406 166.635 169.811 166.635C161.216 166.635 155.816 172.845 155.816 182.7C155.816 192.51 161.216 198.675 169.811 198.675ZM169.811 192.645C165.176 192.645 162.476 188.91 162.476 182.7C162.476 176.445 165.176 172.665 169.811 172.665C174.446 172.665 177.146 176.445 177.146 182.7C177.146 188.91 174.446 192.645 169.811 192.645ZM77.7666 198H84.3366V186.345H88.0716L94.3266 198H101.167L94.1916 185.265C97.7466 183.825 99.6816 180.9 99.6816 176.715C99.6816 170.595 95.3166 167.355 87.9816 167.355H77.7666V198ZM84.3366 180.9V172.8H87.8466C91.2666 172.8 93.0216 174.285 93.0216 177.075C93.0216 179.595 91.2666 180.9 87.8466 180.9H84.3366ZM125.379 191.745H112.374V185.265H121.959L123.804 179.46H112.374V173.61H125.379V167.355H105.804V198H125.379V191.745ZM137.247 198H130.677V167.355H140.847C148.362 167.355 152.367 170.595 152.367 176.715C152.367 183.285 148.137 186.885 140.847 186.885H137.247V198ZM137.247 172.8V181.44H140.667C143.997 181.44 145.707 179.865 145.707 177.12C145.707 174.375 143.997 172.8 140.667 172.8H137.247ZM195.914 198H189.344V167.355H199.559C206.894 167.355 211.259 170.595 211.259 176.715C211.259 180.9 209.324 183.825 205.769 185.265L212.744 198H205.904L199.649 186.345H195.914V198ZM195.914 172.8V180.9H199.424C202.844 180.9 204.599 179.595 204.599 177.075C204.599 174.285 202.844 172.8 199.424 172.8H195.914ZM223.328 198H229.898V173.25H237.998L239.888 167.355H214.283V173.25H223.328V198ZM264.297 191.655H273.837V198H252.417L262.947 182.745C264.567 180.405 265.827 177.84 265.827 175.95C265.827 174.105 264.747 172.755 262.092 172.755C260.067 172.755 257.997 173.25 255.342 174.78L252.462 169.56C256.287 167.4 258.897 166.635 262.812 166.635C268.707 166.635 272.487 169.83 272.487 175.365C272.487 179.055 270.822 181.755 267.357 187.02L264.297 191.655ZM289.172 198.72C297.272 198.72 301.862 192.87 301.862 182.7C301.862 172.485 297.272 166.635 289.172 166.635C281.072 166.635 276.482 172.485 276.482 182.7C276.482 192.87 281.072 198.72 289.172 198.72ZM289.172 192.6C285.392 192.6 283.232 189 283.232 182.7C283.232 176.4 285.392 172.755 289.172 172.755C292.952 172.755 295.112 176.4 295.112 182.7C295.112 189 292.952 192.6 289.172 192.6ZM315.274 191.655H324.814V198H303.394L313.924 182.745C315.544 180.405 316.804 177.84 316.804 175.95C316.804 174.105 315.724 172.755 313.069 172.755C311.044 172.755 308.974 173.25 306.319 174.78L303.439 169.56C307.264 167.4 309.874 166.635 313.789 166.635C319.684 166.635 323.464 169.83 323.464 175.365C323.464 179.055 321.799 181.755 318.334 187.02L315.274 191.655ZM348.764 191.655H339.224L342.284 187.02C345.749 181.755 347.414 179.055 347.414 175.365C347.414 169.83 343.634 166.635 337.739 166.635C333.824 166.635 331.214 167.4 327.389 169.56L330.269 174.78C332.924 173.25 334.994 172.755 337.019 172.755C339.674 172.755 340.754 174.105 340.754 175.95C340.754 177.84 339.494 180.405 337.874 182.745L327.344 198H348.764V191.655ZM41.856 147.832L44.64 151H62.592L51.072 137.368L60 125.368L49.92 117.688L42.528 127.384L32.16 115.192C26.688 108.76 24.864 105.592 24.864 103.096C24.864 99.8319 27.84 99.0639 31.68 99.0639C35.4175 99.0639 38.9804 99.8206 42.2327 101.198C43.1573 101.59 44.0567 102.031 44.928 102.52L50.784 89.3679C44.064 85.8159 37.536 83.9919 30.336 83.9919C16.8 83.9919 7.67997 88.8879 7.67997 100.888C7.67997 105.279 8.91955 108.43 11.982 112.674C12.5354 113.441 13.1482 114.244 13.824 115.096C12.8936 115.574 12.0206 116.082 11.2064 116.622C5.97188 120.094 3.16797 124.905 3.16797 131.8C3.16797 142.072 9.11997 152.632 27.456 152.632C33.6 152.632 37.92 151 41.856 147.832ZM69.055 154L54.8995 137.249L64.1773 124.779L49.3526 113.484L42.4004 122.603L34.445 113.248C31.7354 110.063 30.0434 107.817 29.0353 106.129C28.0295 104.446 27.864 103.578 27.864 103.096C27.864 102.916 27.8845 102.81 27.8981 102.758C27.905 102.733 27.911 102.718 27.9138 102.711C27.9154 102.708 27.9164 102.706 27.9169 102.705L27.9178 102.703L27.9201 102.7C27.9218 102.698 27.9254 102.695 27.9314 102.689C27.9349 102.686 27.9391 102.682 27.9444 102.677C27.9732 102.653 28.036 102.607 28.1525 102.55C28.7245 102.269 29.8395 102.064 31.68 102.064C35.9524 102.064 39.9606 103.173 43.4603 105.136L46.3301 106.746L54.6654 88.0262L52.1859 86.7156C45.1007 82.9706 38.095 80.9919 30.336 80.9919C23.2901 80.9919 16.922 82.2517 12.2353 85.4658C7.36114 88.8085 4.67997 94.0084 4.67997 100.888C4.67997 106.045 6.21808 109.764 9.39961 114.221C6.97805 115.851 4.94182 117.796 3.39772 120.143C1.22806 123.441 0.167969 127.323 0.167969 131.8C0.167969 137.486 1.818 143.522 6.27538 148.149C10.764 152.809 17.7052 155.632 27.456 155.632C33.0975 155.632 37.4962 154.36 41.3996 151.857L43.2826 154H69.055ZM22.872 130.648C22.872 130.512 22.8752 130.377 22.8817 130.244L27.6585 135.796C25.5111 135.703 24.4846 135.078 23.9555 134.501C23.3366 133.826 22.872 132.645 22.872 130.648ZM19.872 130.648C19.872 129.53 20.0334 128.439 20.4133 127.374C20.751 126.428 21.2612 125.504 21.984 124.6L33.216 137.656C32.2776 138.157 31.2576 138.494 30.1294 138.668C29.5265 138.761 28.8927 138.808 28.224 138.808C22.08 138.808 19.872 135.448 19.872 130.648ZM82.035 104.944V154H108.195V104.944H126.723V82.6239H63.699V104.944H82.035ZM123.723 101.944H105.195V151H85.035V101.944H66.699V85.6239H123.723V101.944ZM128.102 82.6239V154H154.262V132.441L165.472 154H242.605V133.024H217.262V127.312H234.533L239.742 107.296H217.262V103.6H242.605V82.6239H191.102V150.965L176.418 125.884C179.244 124.273 181.568 122.178 183.294 119.573C185.613 116.073 186.71 111.868 186.71 107.128C186.71 99.3826 184.173 93.0567 178.853 88.7517C173.644 84.5373 166.209 82.6239 157.118 82.6239H128.102ZM167.294 151L154.814 127H151.262V151H131.102V85.6239H157.118C174.59 85.6239 183.71 93.0159 183.71 107.128C183.71 114.587 180.71 119.997 174.902 123.295C174.057 123.775 173.153 124.21 172.189 124.6L187.646 151H167.294ZM153.781 111.424V103.216H155.678C157.683 103.216 158.853 103.735 159.487 104.302C160.075 104.826 160.549 105.697 160.549 107.224C160.549 108.884 160.051 109.801 159.466 110.334C158.839 110.905 157.684 111.424 155.678 111.424H153.781ZM214.262 124.312H232.214L235.861 110.296H214.262V100.6H239.605V85.6239H194.102V151H239.605V136.024H214.262V124.312ZM268.122 82.6239H245.57V154H270.77V126.678L287.193 154H309.554V82.6239H284.354V109.579L268.122 82.6239ZM288.89 151L267.77 115.864V151H248.57V85.6239H266.426L287.354 120.376V85.6239H306.554V151H288.89ZM340.987 82.6239H314.852V154H340.987C352.215 154 361.282 151.14 367.529 144.961C373.782 138.776 376.724 129.749 376.724 118.456C376.724 107.253 373.78 98.1701 367.548 91.8975C361.313 85.6215 352.248 82.6239 340.987 82.6239ZM340.987 151H317.852V85.6239H340.987C362.492 85.6239 373.724 97.0479 373.724 118.456C373.724 140.056 362.492 151 340.987 151ZM341.564 132.544H340.531V104.08H341.755C344.814 104.08 346.778 105.167 348.125 107.162C349.607 109.359 350.564 112.999 350.564 118.456C350.564 123.746 349.591 127.304 348.089 129.463C346.714 131.439 344.691 132.544 341.564 132.544ZM405.305 100.504C409.918 100.504 413.917 101.845 417.089 103.248C418.075 103.684 418.981 104.126 419.801 104.536L426.04 89.9439C419.224 85.9119 411.641 83.9919 404.056 83.9919C390.04 83.9919 380.249 90.8079 380.249 102.616C380.249 113.272 386.681 118.648 396.089 122.488C405.496 126.328 408.569 128.92 408.569 131.608C408.569 135.256 405.208 136.12 401.177 136.12C396.716 136.12 391.757 134.272 386.484 131.065C385.63 130.545 384.767 129.989 383.897 129.4L378.233 145.048C385.241 149.56 393.785 152.536 403.961 152.536C418.552 152.536 428.824 146.68 428.824 132.568C428.824 123.928 424.216 116.92 410.488 110.968C400.984 106.84 399.544 106.168 399.544 103.576C399.544 101.464 401.177 100.504 405.305 100.504ZM427.145 118.883C423.859 114.787 418.794 111.299 411.684 108.216C406.796 106.093 404.369 105.015 403.09 104.182C402.79 103.987 402.634 103.855 402.56 103.783C402.697 103.74 402.891 103.691 403.159 103.646C403.678 103.559 404.377 103.504 405.305 103.504C410.607 103.504 415.063 105.522 418.459 107.219L421.307 108.643L429.834 88.7025L427.568 87.3618C420.265 83.0419 412.149 80.9919 404.056 80.9919C396.604 80.9919 389.952 82.7996 385.086 86.4841C380.129 90.2371 377.249 95.7821 377.249 102.616C377.249 108.62 379.088 113.349 382.391 117.093C385.616 120.749 390.064 123.269 394.955 125.266C399.608 127.165 402.43 128.655 404.052 129.876C404.847 130.475 405.233 130.921 405.413 131.204C405.567 131.445 405.569 131.557 405.569 131.608C405.569 132.044 405.474 132.203 405.45 132.241C405.42 132.287 405.333 132.404 405.043 132.549C404.351 132.895 403.092 133.12 401.177 133.12C396.887 133.12 391.641 131.02 385.578 126.916L382.387 124.756L374.598 146.276L376.608 147.57C384.064 152.371 393.166 155.536 403.961 155.536C411.585 155.536 418.53 154.018 423.641 150.261C428.904 146.393 431.824 140.445 431.824 132.568C431.824 127.653 430.492 123.056 427.145 118.883ZM155.678 114.424H150.781V100.216H155.678C160.669 100.216 163.549 102.808 163.549 107.224C163.549 111.832 160.669 114.424 155.678 114.424ZM353.564 118.456C353.564 129.592 349.531 135.544 341.564 135.544H337.531V101.08H341.755C349.628 101.08 353.564 107.032 353.564 118.456Z" fill="white"/>
</svg>
